<svg id="spin" xmlns="http://www.w3.org/2000/svg" version="1.1" xmlns:xlink="http://www.w3.org/1999/xlink"
        xmlns:svgjs="http://svgjs.dev/svgjs" width="200" height="200" viewBox="0 0 2000 2250">
        <g transform="matrix(1,0,0,1,3.410605131648481e-13,0)"><svg viewBox="0 0 320 360"
                        data-background-color="#0b022d" preserveAspectRatio="xMidYMid meet" height="2250" width="2000"
                        xmlns="http://www.w3.org/2000/svg" xmlns:xlink="http://www.w3.org/1999/xlink">
                        <g id="tight-bounds" transform="matrix(1,0,0,1,0,0)"><svg viewBox="0 0 320 360" height="360"
                                        width="320">
                                        <g><svg></svg></g>
                                        <g><svg viewBox="0 0 320 360" height="360" width="320">
                                                        <g>
                                                                <path d="M20.961 227.22l3.726 4.658-1.863-6.056c-0.466-2.795-3.726 0.466-1.863 1.398M25.153 224.425c1.397 2.329 2.795 4.658 2.795 6.987 0 3.261 2.795 4.658 5.123 5.589-3.261-3.726-5.124-13.974-7.918-12.576M204.017 26.929c7.918 0 15.371-0.932 23.756 0.931 20.495 5.124 37.729 15.371 49.374 29.811l32.606 52.169c1.397 13.042 4.192 27.482 3.726 43.319 3.261 0 2.795-4.658 6.521-5.59-3.726 9.316-5.59 20.961-6.521 34.469-2.329-7.453 0-18.632 0.466-24.687-3.261 5.124-5.124 1.397-5.124-0.932 0.466-3.726-1.397-3.261-2.795-4.658-5.124-4.658-8.384-9.782-12.11-17.7 2.329-6.055 2.795-14.905-4.658-19.563-2.329-1.397-5.124-3.726-6.521-7.453-1.863-5.124-5.124-11.179-4.193-19.097 0.466-2.329-6.987 5.124-11.179 1.863-18.166-12.576-36.332-27.016-58.224-39.127-11.645 0-20.029-4.192-24.221-9.316-3.726-4.658-0.932-10.713 4.658-11.179 3.261 0 6.987-0.932 9.782 0.932 0.466-1.863 2.329-4.192 4.657-4.192M157.904 16.215l0.932 0.466c4.658 0.932 6.987 7.453 12.11 5.124 0 3.261 0.466 6.521-0.466 8.85-1.397 3.726-5.59 3.726-8.85 3.726-31.208-1.863-49.374 11.179-68.471 22.358-5.124 3.261-10.713 5.59-14.906 9.782-20.029 18.632-41.921 35.866-47.045 70.335l-4.192 38.195c-0.466 4.192-5.124 8.384-4.192 13.508l3.26 22.824c-3.261-3.261-5.124 0.932-4.192 2.795 0.466 1.397 2.329 6.055 5.124 1.863 3.726 6.987 7.453 20.495 12.576 26.55 15.837 18.632 36.332 35.4 53.101 52.169 4.192-0.932 7.453-0.932 8.384-3.727 1.397 2.795-1.397 5.59-3.726 6.056 7.453 4.658 15.837 8.85 27.016 9.781 14.44 0.932 27.948 3.261 40.524 6.522 6.521-1.863 13.042-2.795 20.029-3.261 2.329 0 3.726-3.726 6.521-4.658l0.466-4.658c2.795 4.192 2.329-1.397 0.466-4.192 3.261 2.795 4.192 5.124 5.589 6.987 0-1.397 3.726-6.521 3.727-0.466l0.931-6.055c1.397-0.932 1.863 5.124 3.261 0.931 1.397-4.192 4.192-0.932 6.987-2.329-0.932 1.863-0.466 5.59 2.794 3.261l3.727-3.261c2.329 5.59 6.055 3.261 7.918 2.329 20.495-13.042 40.99-28.413 60.553-43.784l-0.466 6.055 2.329-7.453c2.329 2.329 4.192 0.466 5.124-0.931 2.795-4.658 6.521-9.316 12.577-13.508-7.453 20.029-16.303 35.866-27.482 48.908l-4.658 5.59c0 3.261-0.932 7.453-4.658 7.918-1.863 0.466-5.59-0.932-8.384 1.863-1.397 1.863 3.261 5.59-0.466 2.795-3.261-2.329-6.521 0-10.248 0.932-2.795 0.932 1.863 3.726 2.795 5.589 0.932 1.863 1.863 3.726 1.398 6.056l-5.124-5.59c-6.055 3.261-9.782 9.316-14.906 13.974-2.329 1.863-1.397 5.124-1.397 7.918-3.261 0-6.987-0.932-8.85 0.932-1.397 1.863-0.932 4.658-0.932 7.453-4.658-0.466-5.124-7.453-9.315-6.056-4.192 0.932-8.85 1.397-12.577 3.727 2.795 5.59-4.658 2.329-3.726 3.26-6.987-4.192-13.042-7.453-20.495-4.658-15.837-5.124-35.4-2.795-49.84-0.931 0-2.329 0.466-4.658-0.466-5.124-0.932 2.329-3.726 1.397-3.26 1.397-8.85-6.055-17.7-9.782-27.016-14.905-8.384 0.932-16.303-3.261-18.632-5.59-6.521-6.055-13.974-2.795-20.029-4.192-13.042-3.261-17.7-16.769-19.098-26.084-0.932-4.658-4.658-6.521-6.055-6.056-6.055-19.563-15.371-37.263-22.824-55.429-1.863-4.658-1.397-9.316-1.397-14.44 2.329 0.932 4.658 0.466 4.192-2.794-2.329-15.371-7.918-27.016-13.974-38.195 3.261-15.837 3.726-34.469 11.179-48.443 6.521-12.576 18.632-19.098 27.016-29.811 2.795-3.726 2.795-8.85 5.59-12.11 9.316-9.316 18.632-19.098 28.879-27.482 4.658-3.726 10.247 0 17.234-1.397 2.329-8.384 11.645-15.837 20.495-13.508 3.726 0.932 11.179-8.85 13.508-9.782 3.726-1.397 1.863 3.726 1.863 6.987 8.85-6.987 20.961-10.713 32.14-14.906"
                                                                        fill="#9f7aea" fill-rule="nonzero" stroke="none"
                                                                        stroke-width="1" stroke-linecap="butt"
                                                                        stroke-linejoin="miter" stroke-miterlimit="10"
                                                                        stroke-dasharray="" stroke-dashoffset="0"
                                                                        font-family="none" font-weight="none"
                                                                        font-size="none" text-anchor="none"
                                                                        style="mix-blend-mode: normal"
                                                                        data-fill-palette-color="tertiary"></path>
                                                        </g>
                                                        <g transform="matrix(1,0,0,1,64,114.29845626072041)"><svg
                                                                        viewBox="0 0 192 131.40308747855917"
                                                                        height="131.40308747855917" width="192">
                                                                        <g><svg viewBox="0 0 192 131.40308747855917"
                                                                                        height="131.40308747855917"
                                                                                        width="192">
                                                                                        <g><svg viewBox="0 0 192 131.40308747855917"
                                                                                                        height="131.40308747855917"
                                                                                                        width="192">
                                                                                                        <g><svg viewBox="0 0 192 131.40308747855917"
                                                                                                                        height="131.40308747855917"
                                                                                                                        width="192">
                                                                                                                        <g><svg viewBox="0 0 192 131.40308747855917"
                                                                                                                                        height="131.40308747855917"
                                                                                                                                        width="192">
                                                                                                                                        <g><svg viewBox="0 0 192 131.40308747855917"
                                                                                                                                                        height="131.40308747855917"
                                                                                                                                                        width="192">
                                                                                                                                                        <g
                                                                                                                                                                transform="matrix(1,0,0,1,0,0)">
                                                                                                                                                                <svg width="192"
                                                                                                                                                                        viewBox="-1.76 -35.16 56.93 38.97"
                                                                                                                                                                        height="131.40308747855917"
                                                                                                                                                                        data-palette-color="#9f7aea">
                                                                                                                                                                        <path d="M26.46-6.15L26.46-6.15Q26.46-5.32 26.05-4.71 25.63-4.1 25.73-3.22L25.73-3.22Q25.05-2.83 24.61-2.2 24.17-1.56 23.78-0.88L23.78-0.88Q20.56 1.22 16.87 2.51 13.18 3.81 9.28 3.81L9.28 3.81Q9.03 3.81 8.84 3.59 8.64 3.37 8.45 3.13 8.25 2.88 8.03 2.66 7.81 2.44 7.52 2.44L7.52 2.44Q7.18 2.44 6.98 2.59L6.98 2.59Q6.98 2.49 7.01 2.42 7.03 2.34 7.03 2.25L7.03 2.25Q7.03 1.66 6.88 1.05 6.74 0.44 6.74-0.15L6.74-0.15Q6.74-0.83 6.98-1.27L6.98-1.27 7.57-1.27Q8.06-1.27 8.52-1.34 8.98-1.42 9.52-1.42L9.52-1.42Q10.06-1.42 10.5-1.12L10.5-1.12Q13.18-1.22 15.6-2.12 18.02-3.03 20.51-3.91L20.51-3.91Q20.9-4.44 20.97-5.1 21.04-5.76 21.34-6.35L21.34-6.35Q20.07-7.42 18.77-8.03 17.48-8.64 15.77-8.45L15.77-8.45Q14.75-9.08 13.6-9.18 12.45-9.28 11.28-9.47L11.28-9.47Q10.99-9.52 10.67-9.59 10.35-9.67 10.01-9.67L10.01-9.67Q9.77-9.67 9.55-9.55 9.33-9.42 9.42-9.18L9.42-9.18Q9.18-9.57 8.76-9.64 8.35-9.72 8.06-10.01L8.06-10.01Q6.49-10.11 5.32-10.57 4.15-11.04 2.73-11.62L2.73-11.62Q2.34-11.77 1.98-11.84 1.61-11.91 1.27-12.11L1.27-12.11Q0.39-12.55-0.15-13.28-0.68-14.01-1-14.92-1.32-15.82-1.46-16.8-1.61-17.77-1.76-18.6L-1.76-18.6Q-1.32-19.38-0.95-20.21-0.59-21.04-0.34-21.97L-0.34-21.97Q-0.05-22.12 0.24-22.22 0.54-22.31 0.88-22.46L0.88-22.46Q0.83-22.56 0.83-22.71L0.83-22.71Q0.83-22.95 1-23.19 1.17-23.44 1.07-23.68L1.07-23.68Q2.15-24.66 3.15-25.71 4.15-26.76 4.88-28.03L4.88-28.03Q5.62-28.27 6.05-28.76 6.49-29.25 6.93-29.76 7.37-30.27 7.91-30.69 8.45-31.1 9.28-31.2L9.28-31.2Q9.47-31.54 9.81-31.76 10.16-31.98 10.5-32.18 10.84-32.37 11.13-32.62 11.43-32.86 11.57-33.3L11.57-33.3Q12.35-33.3 13.01-33.59 13.67-33.89 14.31-34.23 14.94-34.57 15.6-34.86 16.26-35.16 17.04-35.16L17.04-35.16Q17.24-35.16 17.43-35.13 17.63-35.11 17.87-35.06L17.87-35.06Q18.21-34.72 18.33-34.25 18.46-33.79 18.51-33.25 18.55-32.71 18.58-32.18 18.6-31.64 18.75-31.2L18.75-31.2Q18.31-30.37 17.8-29.54 17.29-28.71 16.46-28.27L16.46-28.27 16.36-28.27Q16.02-28.22 15.72-28.42 15.43-28.61 15.04-28.61L15.04-28.61Q14.79-28.61 14.65-28.47L14.65-28.47 14.4-28.22Q14.31-28.13 14.14-28.03 13.96-27.93 13.67-28.03L13.67-28.03Q12.99-27.78 13.13-27.2L13.13-27.2Q12.21-27.1 11.57-26.64 10.94-26.17 10.4-25.61 9.86-25.05 9.33-24.58 8.79-24.12 8.06-24.07L8.06-24.07Q7.23-22.61 6.03-21.48 4.83-20.36 4.05-18.95L4.05-18.95Q4.2-18.55 4.25-18.12 4.3-17.68 4.39-17.19L4.39-17.19Q4.83-16.6 5.44-16.16 6.05-15.72 6.64-15.28L6.64-15.28 6.79-15.28Q7.76-15.28 8.59-14.92 9.42-14.55 10.35-14.55L10.35-14.55Q10.84-14.55 11.18-14.75L11.18-14.75Q12.45-14.45 13.7-14.26 14.94-14.06 16.21-13.96L16.21-13.96Q16.85-13.87 17.5-13.87 18.16-13.87 18.75-13.72L18.75-13.72Q19.29-13.57 19.82-13.35 20.36-13.13 20.9-12.89L20.9-12.89Q22.02-12.4 23.02-11.82 24.02-11.23 24.8-10.42 25.59-9.62 26.03-8.57 26.46-7.52 26.46-6.15ZM55.17-6.15L55.17-6.15Q55.17-5.32 54.76-4.71 54.34-4.1 54.44-3.22L54.44-3.22Q53.76-2.83 53.32-2.2 52.88-1.56 52.49-0.88L52.49-0.88Q49.27 1.22 45.58 2.51 41.89 3.81 37.99 3.81L37.99 3.81Q37.74 3.81 37.55 3.59 37.35 3.37 37.16 3.13 36.96 2.88 36.74 2.66 36.52 2.44 36.23 2.44L36.23 2.44Q35.89 2.44 35.69 2.59L35.69 2.59Q35.69 2.49 35.72 2.42 35.74 2.34 35.74 2.25L35.74 2.25Q35.74 1.66 35.59 1.05 35.45 0.44 35.45-0.15L35.45-0.15Q35.45-0.83 35.69-1.27L35.69-1.27 36.28-1.27Q36.77-1.27 37.23-1.34 37.69-1.42 38.23-1.42L38.23-1.42Q38.77-1.42 39.21-1.12L39.21-1.12Q41.89-1.22 44.31-2.12 46.73-3.03 49.22-3.91L49.22-3.91Q49.61-4.44 49.68-5.1 49.75-5.76 50.05-6.35L50.05-6.35Q48.78-7.42 47.48-8.03 46.19-8.64 44.48-8.45L44.48-8.45Q43.45-9.08 42.31-9.18 41.16-9.28 39.99-9.47L39.99-9.47Q39.69-9.52 39.38-9.59 39.06-9.67 38.72-9.67L38.72-9.67Q38.47-9.67 38.25-9.55 38.03-9.42 38.13-9.18L38.13-9.18Q37.89-9.57 37.47-9.64 37.06-9.72 36.77-10.01L36.77-10.01Q35.2-10.11 34.03-10.57 32.86-11.04 31.44-11.62L31.44-11.62Q31.05-11.77 30.69-11.84 30.32-11.91 29.98-12.11L29.98-12.11Q29.1-12.55 28.56-13.28 28.02-14.01 27.71-14.92 27.39-15.82 27.24-16.8 27.1-17.77 26.95-18.6L26.95-18.6Q27.39-19.38 27.76-20.21 28.12-21.04 28.37-21.97L28.37-21.97Q28.66-22.12 28.95-22.22 29.25-22.31 29.59-22.46L29.59-22.46Q29.54-22.56 29.54-22.71L29.54-22.71Q29.54-22.95 29.71-23.19 29.88-23.44 29.78-23.68L29.78-23.68Q30.86-24.66 31.86-25.71 32.86-26.76 33.59-28.03L33.59-28.03Q34.32-28.27 34.76-28.76 35.2-29.25 35.64-29.76 36.08-30.27 36.62-30.69 37.16-31.1 37.99-31.2L37.99-31.2Q38.18-31.54 38.52-31.76 38.86-31.98 39.21-32.18 39.55-32.37 39.84-32.62 40.13-32.86 40.28-33.3L40.28-33.3Q41.06-33.3 41.72-33.59 42.38-33.89 43.02-34.23 43.65-34.57 44.31-34.86 44.97-35.16 45.75-35.16L45.75-35.16Q45.94-35.16 46.14-35.13 46.34-35.11 46.58-35.06L46.58-35.06Q46.92-34.72 47.04-34.25 47.17-33.79 47.21-33.25 47.26-32.71 47.29-32.18 47.31-31.64 47.46-31.2L47.46-31.2Q47.02-30.37 46.51-29.54 45.99-28.71 45.16-28.27L45.16-28.27 45.07-28.27Q44.72-28.22 44.43-28.42 44.14-28.61 43.75-28.61L43.75-28.61Q43.5-28.61 43.36-28.47L43.36-28.47 43.11-28.22Q43.02-28.13 42.84-28.03 42.67-27.93 42.38-28.03L42.38-28.03Q41.7-27.78 41.84-27.2L41.84-27.2Q40.92-27.1 40.28-26.64 39.65-26.17 39.11-25.61 38.57-25.05 38.03-24.58 37.5-24.12 36.77-24.07L36.77-24.07Q35.94-22.61 34.74-21.48 33.54-20.36 32.76-18.95L32.76-18.95Q32.91-18.55 32.96-18.12 33.01-17.68 33.1-17.19L33.1-17.19Q33.54-16.6 34.15-16.16 34.76-15.72 35.35-15.28L35.35-15.28 35.5-15.28Q36.47-15.28 37.3-14.92 38.13-14.55 39.06-14.55L39.06-14.55Q39.55-14.55 39.89-14.75L39.89-14.75Q41.16-14.45 42.4-14.26 43.65-14.06 44.92-13.96L44.92-13.96Q45.55-13.87 46.21-13.87 46.87-13.87 47.46-13.72L47.46-13.72Q48-13.57 48.53-13.35 49.07-13.13 49.61-12.89L49.61-12.89Q50.73-12.4 51.73-11.82 52.73-11.23 53.51-10.42 54.29-9.62 54.73-8.57 55.17-7.52 55.17-6.15Z"
                                                                                                                                                                                opacity="1"
                                                                                                                                                                                transform="matrix(1,0,0,1,0,0)"
                                                                                                                                                                                fill="#9f7aea"
                                                                                                                                                                                class="undefined-text-0"
                                                                                                                                                                                data-fill-palette-color="primary"
                                                                                                                                                                                id="text-0">
                                                                                                                                                                        </path>
                                                                                                                                                                </svg>
                                                                                                                                                        </g>
                                                                                                                                                </svg>
                                                                                                                                        </g>
                                                                                                                                </svg>
                                                                                                                        </g>
                                                                                                                </svg>
                                                                                                        </g>
                                                                                                        <g></g>
                                                                                                </svg></g>
                                                                                </svg></g>
                                                                </svg></g>
                                                </svg></g>
                                        <defs></defs>
                                </svg>
                                <rect width="320" height="360" fill="none" stroke="none" visibility="hidden"></rect>
                        </g>
                </svg></g>
</svg>